<?xml version="1.0" standalone="no"?>
<!DOCTYPE svg PUBLIC "-//W3C//DTD SVG 20010904//EN"
 "http://www.w3.org/TR/2001/REC-SVG-20010904/DTD/svg10.dtd">
<svg version="1.0" xmlns="http://www.w3.org/2000/svg"
 width="577.000000pt" height="433.000000pt" viewBox="0 0 577.000000 433.000000"
 preserveAspectRatio="xMidYMid meet">

<g transform="translate(0.000000,433.000000) scale(0.100000,-0.100000)"
fill="#000000" stroke="none">
<path d="M2970 2830 c0 -323 0 -330 20 -330 20 0 20 7 20 310 l0 310 950 0
950 0 0 -955 0 -955 -947 2 -948 3 -3 308 c-2 299 -3 307 -22 307 -20 0 -20
-7 -20 -330 l0 -330 990 0 990 0 0 995 0 995 -990 0 -990 0 0 -330z"/>
<path d="M2790 2328 l0 -101 -23 21 c-50 47 -132 48 -189 2 -77 -60 -80 -229
-6 -307 26 -28 89 -46 129 -38 16 4 43 18 59 32 l30 25 0 -26 c0 -25 3 -26 50
-26 l50 0 0 260 0 260 -50 0 -50 0 0 -102z m-29 -157 c59 -60 23 -181 -54
-181 -56 1 -87 40 -87 110 0 50 42 100 85 100 16 0 38 -12 56 -29z"/>
<path d="M1642 2168 c-45 -134 -82 -246 -82 -250 0 -5 24 -8 54 -8 l54 0 17
50 17 50 88 0 88 0 17 -50 17 -50 54 0 c38 0 54 4 54 13 0 8 -36 119 -79 248
l-79 234 -70 3 -69 3 -81 -243z m208 -60 c0 -5 -27 -8 -60 -8 -33 0 -60 4 -60
8 0 8 47 177 57 202 4 12 62 -173 63 -202z"/>
<path d="M2100 2095 l0 -185 49 0 49 0 4 126 c3 118 4 127 27 145 28 23 60 24
87 5 17 -13 19 -29 22 -145 l4 -131 49 0 50 0 -3 156 -3 156 -33 29 c-52 46
-141 39 -184 -15 -17 -21 -18 -21 -18 12 0 32 0 32 -50 32 l-50 0 0 -185z"/>
<path d="M2990 2095 l0 -185 49 0 49 0 4 114 c3 105 5 117 27 140 17 18 35 26
58 26 32 0 33 1 33 45 0 44 -1 45 -31 45 -21 0 -39 -9 -60 -32 l-29 -32 0 32
c0 32 0 32 -50 32 l-50 0 0 -185z"/>
<path d="M3329 2257 c-103 -68 -103 -254 -1 -323 40 -27 116 -37 181 -23 l51
11 0 42 0 43 -45 -15 c-26 -8 -59 -12 -78 -8 -33 6 -77 38 -77 56 0 6 47 10
111 10 l111 0 -4 73 c-4 81 -22 116 -75 142 -48 23 -133 20 -174 -8z m140 -73
c36 -46 29 -54 -49 -54 -38 0 -70 2 -70 5 0 17 26 55 44 63 35 17 53 14 75
-14z"/>
<path d="M3635 2257 c4 -12 30 -95 59 -182 l52 -160 56 -3 55 -3 28 113 c15
62 29 120 32 128 3 8 19 -41 37 -110 l31 -125 56 -3 55 -3 57 178 c32 98 57
181 57 186 0 4 -22 7 -49 7 l-48 0 -32 -118 c-17 -65 -31 -127 -31 -137 0 -35
-11 -7 -41 106 -17 63 -33 122 -36 132 -5 15 -14 17 -52 15 l-46 -3 -32 -110
c-17 -60 -32 -121 -33 -135 -1 -43 -15 -4 -45 128 l-28 122 -54 0 c-51 0 -53
-1 -48 -23z"/>
</g>
</svg>
